<?xml version="1.0" encoding="utf-8"?>
<!-- Generator: Adobe Illustrator 17.1.0, SVG Export Plug-In . SVG Version: 6.00 Build 0)  -->
<!DOCTYPE svg PUBLIC "-//W3C//DTD SVG 1.1//EN" "http://www.w3.org/Graphics/SVG/1.1/DTD/svg11.dtd">
<svg version="1.1" id="Layer_1" xmlns="http://www.w3.org/2000/svg" xmlns:xlink="http://www.w3.org/1999/xlink" x="0px" y="0px"
	 viewBox="0 0 1024 877" enable-background="new 0 0 1024 877" xml:space="preserve">
<path fill="#FF3A1E" stroke="#FF3A1E" stroke-miterlimit="10" d="M18.1,76.3c0-34.9,26.6-58.7,57.9-58.7c33.7,0,48.5,21.7,52.2,37.8
	l-23.6,7.4c-1.7-7.7-8.9-20.9-28.6-20.9c-15,0-31.9,10.8-31.9,34.3c0,21,15.5,33.2,32.3,33.2c19.5,0,27.2-13,29.4-21l23.9,6.8
	c-3.6,15.5-18.5,39.2-53.3,39.2C44,134.4,18.1,111.2,18.1,76.3"/>
<path fill="#FF3A1E" stroke="#FF3A1E" stroke-miterlimit="10" d="M147.4,91.6V20h25v69.6c0,13.6,7.6,20.4,19.4,20.4
	c11.9,0,19.4-6.8,19.4-20.4V20h25v71.6c0,28.1-19.8,43-44.4,43C167.2,134.6,147.4,119.7,147.4,91.6"/>
<polygon fill="#FF3A1E" stroke="#FF3A1E" stroke-miterlimit="10" points="262.9,132.1 262.9,20 287.8,20 287.8,108.2 336.2,108.2 
	336.2,132.1 "/>
<path fill="#FF3A1E" stroke="#FF3A1E" stroke-miterlimit="10" d="M422.9,109.3h-43.3l-8.1,22.8h-26.2L387.5,20h28.9l41.7,112.1H431
	L422.9,109.3z M387.8,86.5H415l-13.4-38.7L387.8,86.5z"/>
<path fill="#FF3A1E" stroke="#FF3A1E" stroke-miterlimit="10" d="M462.4,76.3c0-34.9,26.6-58.7,57.9-58.7
	c33.7,0,48.5,21.7,52.2,37.8l-23.6,7.4c-1.7-7.7-8.9-20.9-28.6-20.9c-15,0-31.9,10.8-31.9,34.3c0,21,15.5,33.2,32.3,33.2
	c19.5,0,27.2-13,29.4-21l23.9,6.8c-3.6,15.5-18.5,39.2-53.3,39.2C488.4,134.4,462.4,111.2,462.4,76.3"/>
<path fill="#FF3A1E" stroke="#FF3A1E" stroke-miterlimit="10" d="M586.7,76.3c0-34.9,26.6-58.7,57.9-58.7
	c33.7,0,48.5,21.7,52.2,37.8l-23.6,7.4c-1.7-7.7-8.9-20.9-28.6-20.9c-15,0-31.9,10.8-31.9,34.3c0,21,15.5,33.2,32.3,33.2
	c19.5,0,27.2-13,29.4-21l23.9,6.8c-3.6,15.5-18.5,39.2-53.3,39.2C612.7,134.4,586.7,111.2,586.7,76.3"/>
<rect x="718.4" y="20" fill="#FF3A1E" stroke="#FF3A1E" stroke-miterlimit="10" width="25.3" height="112.1"/>
<polygon fill="#FF3A1E" stroke="#FF3A1E" stroke-miterlimit="10" points="842.1,132.1 795.9,58.4 795.9,132.1 771.1,132.1 771.1,20 
	801.5,20 843.5,88.1 843.5,20 868.5,20 868.5,132.1 "/>
<path display="none" fill="#00263D" d="M947.7,17.6c31.5,0,58.2,22.9,58.2,58.5c0,35.4-26.7,58.3-58.2,58.3
	c-31.6,0-58.3-22.9-58.3-58.3C889.4,40.5,916.1,17.6,947.7,17.6 M947.7,109.8c15.5,0,32.3-10.4,32.3-33.8c0-23.4-16.8-34-32.3-34
	c-15.7,0-32.4,10.6-32.4,34C915.3,99.3,932.1,109.8,947.7,109.8"/>
<path fill="#FF3A1E" stroke="#FF3A1E" stroke-miterlimit="10" d="M18.1,221.2c0-34.9,26.6-58.7,57.9-58.7
	c33.7,0,48.5,21.7,52.2,37.8l-23.6,7.4c-1.7-7.7-8.9-20.9-28.6-20.9c-15,0-31.9,10.8-31.9,34.3c0,21,15.5,33.2,32.3,33.2
	c19.5,0,27.2-13,29.4-21l23.9,6.8c-3.6,15.5-18.5,39.2-53.3,39.2C44,279.4,18.1,256.2,18.1,221.2"/>
<path fill="#FF3A1E" stroke="#FF3A1E" stroke-miterlimit="10" d="M147.4,236.6v-71.6h25v69.6c0,13.6,7.6,20.4,19.4,20.4
	c11.9,0,19.4-6.8,19.4-20.4v-69.6h25v71.6c0,28.1-19.8,43-44.4,43C167.2,279.6,147.4,264.7,147.4,236.6"/>
<polygon fill="#FF3A1E" stroke="#FF3A1E" stroke-miterlimit="10" points="262.9,277 262.9,164.9 287.8,164.9 287.8,253.2 
	336.2,253.2 336.2,277 "/>
<path fill="#FF3A1E" stroke="#FF3A1E" stroke-miterlimit="10" d="M422.9,254.3h-43.3l-8.1,22.8h-26.2l42.2-112.1h28.9L458.2,277H431
	L422.9,254.3z M387.8,231.5H415l-13.4-38.7L387.8,231.5z"/>
<path fill="#FF3A1E" stroke="#FF3A1E" stroke-miterlimit="10" d="M462.4,221.2c0-34.9,26.6-58.7,57.9-58.7
	c33.7,0,48.5,21.7,52.2,37.8l-23.6,7.4c-1.7-7.7-8.9-20.9-28.6-20.9c-15,0-31.9,10.8-31.9,34.3c0,21,15.5,33.2,32.3,33.2
	c19.5,0,27.2-13,29.4-21l23.9,6.8c-3.6,15.5-18.5,39.2-53.3,39.2C488.4,279.4,462.4,256.2,462.4,221.2"/>
<path fill="#FF3A1E" stroke="#FF3A1E" stroke-miterlimit="10" d="M586.7,221.2c0-34.9,26.6-58.7,57.9-58.7
	c33.7,0,48.5,21.7,52.2,37.8l-23.6,7.4c-1.7-7.7-8.9-20.9-28.6-20.9c-15,0-31.9,10.8-31.9,34.3c0,21,15.5,33.2,32.3,33.2
	c19.5,0,27.2-13,29.4-21l23.9,6.8c-3.6,15.5-18.5,39.2-53.3,39.2C612.7,279.4,586.7,256.2,586.7,221.2"/>
<rect x="718.4" y="164.9" fill="#FF3A1E" stroke="#FF3A1E" stroke-miterlimit="10" width="25.3" height="112.1"/>
<polygon fill="#FF3A1E" stroke="#FF3A1E" stroke-miterlimit="10" points="842.1,277 795.9,203.3 795.9,277 771.1,277 771.1,164.9 
	801.5,164.9 843.5,233.1 843.5,164.9 868.5,164.9 868.5,277 "/>
<path fill="#FF3A1E" stroke="#FF3A1E" stroke-miterlimit="10" d="M947.7,162.5c31.5,0,58.2,22.9,58.2,58.5
	c0,35.4-26.7,58.4-58.2,58.4c-31.6,0-58.3-22.9-58.3-58.4C889.4,185.5,916.1,162.5,947.7,162.5 M947.7,254.7
	c15.5,0,32.3-10.4,32.3-33.8c0-23.4-16.8-34-32.3-34c-15.7,0-32.4,10.6-32.4,34C915.3,244.3,932.1,254.7,947.7,254.7"/>
<path fill="#FF3A1E" stroke="#FF3A1E" stroke-miterlimit="10" d="M947.7,17.6c31.5,0,58.2,22.9,58.2,58.5
	c0,35.4-26.7,58.4-58.2,58.4c-31.6,0-58.3-22.9-58.3-58.4C889.4,40.5,916.1,17.6,947.7,17.6 M947.7,109.8
	c15.5,0,32.3-10.4,32.3-33.8c0-23.4-16.8-34-32.3-34c-15.7,0-32.4,10.6-32.4,34C915.3,99.3,932.1,109.8,947.7,109.8"/>
<path fill="#FF3A1E" stroke="#FF3A1E" stroke-miterlimit="10" d="M18.1,366.2c0-34.9,26.6-58.7,57.9-58.7
	c33.7,0,48.5,21.7,52.2,37.8l-23.6,7.4c-1.7-7.7-8.9-20.9-28.6-20.9c-15,0-31.9,10.8-31.9,34.3c0,21,15.5,33.2,32.3,33.2
	c19.5,0,27.2-13,29.4-21l23.9,6.8c-3.6,15.5-18.5,39.2-53.3,39.2C44,424.4,18.1,401.1,18.1,366.2"/>
<path fill="#FF3A1E" stroke="#FF3A1E" stroke-miterlimit="10" d="M147.4,381.5v-71.6h25v69.6c0,13.6,7.6,20.4,19.4,20.4
	c11.9,0,19.4-6.8,19.4-20.4v-69.6h25v71.6c0,28.1-19.8,43-44.4,43C167.2,424.5,147.4,409.7,147.4,381.5"/>
<polygon fill="#FF3A1E" stroke="#FF3A1E" stroke-miterlimit="10" points="262.9,422 262.9,309.9 287.8,309.9 287.8,398.1 
	336.2,398.1 336.2,422 "/>
<path fill="#FF3A1E" stroke="#FF3A1E" stroke-miterlimit="10" d="M422.9,399.2h-43.3l-8.1,22.8h-26.2l42.2-112.1h28.9L458.2,422H431
	L422.9,399.2z M387.8,376.5H415l-13.4-38.7L387.8,376.5z"/>
<path fill="#FF3A1E" stroke="#FF3A1E" stroke-miterlimit="10" d="M462.4,366.2c0-34.9,26.6-58.7,57.9-58.7
	c33.7,0,48.5,21.7,52.2,37.8l-23.6,7.4c-1.7-7.7-8.9-20.9-28.6-20.9c-15,0-31.9,10.8-31.9,34.3c0,21,15.5,33.2,32.3,33.2
	c19.5,0,27.2-13,29.4-21l23.9,6.8c-3.6,15.5-18.5,39.2-53.3,39.2C488.4,424.4,462.4,401.1,462.4,366.2"/>
<path fill="#FF3A1E" stroke="#FF3A1E" stroke-miterlimit="10" d="M586.7,366.2c0-34.9,26.6-58.7,57.9-58.7
	c33.7,0,48.5,21.7,52.2,37.8l-23.6,7.4c-1.7-7.7-8.9-20.9-28.6-20.9c-15,0-31.9,10.8-31.9,34.3c0,21,15.5,33.2,32.3,33.2
	c19.5,0,27.2-13,29.4-21l23.9,6.8c-3.6,15.5-18.5,39.2-53.3,39.2C612.7,424.4,586.7,401.1,586.7,366.2"/>
<rect x="718.4" y="309.9" fill="#FF3A1E" stroke="#FF3A1E" stroke-miterlimit="10" width="25.3" height="112.1"/>
<polygon fill="#FF3A1E" stroke="#FF3A1E" stroke-miterlimit="10" points="842.1,422 795.9,348.3 795.9,422 771.1,422 771.1,309.9 
	801.5,309.9 843.5,378 843.5,309.9 868.5,309.9 868.5,422 "/>
<path fill="#FF3A1E" stroke="#FF3A1E" stroke-miterlimit="10" d="M947.7,307.5c31.5,0,58.2,22.9,58.2,58.5
	c0,35.4-26.7,58.3-58.2,58.3c-31.6,0-58.3-22.9-58.3-58.3C889.4,330.4,916.1,307.5,947.7,307.5 M947.7,399.7
	c15.5,0,32.3-10.4,32.3-33.8c0-23.4-16.8-34-32.3-34c-15.7,0-32.4,10.6-32.4,34C915.3,389.3,932.1,399.7,947.7,399.7"/>
<path fill="#FF3A1E" stroke="#FF3A1E" stroke-miterlimit="10" d="M18.1,511.1c0-34.9,26.6-58.7,57.9-58.7
	c33.7,0,48.5,21.7,52.2,37.8l-23.6,7.4c-1.7-7.7-8.9-20.9-28.6-20.9c-15,0-31.9,10.8-31.9,34.3c0,21,15.5,33.2,32.3,33.2
	c19.5,0,27.2-13,29.4-21l23.9,6.8c-3.6,15.5-18.5,39.2-53.3,39.2C44,569.3,18.1,546.1,18.1,511.1"/>
<path fill="#FF3A1E" stroke="#FF3A1E" stroke-miterlimit="10" d="M147.4,526.5v-71.6h25v69.6c0,13.6,7.6,20.4,19.4,20.4
	c11.9,0,19.4-6.8,19.4-20.4v-69.6h25v71.6c0,28.1-19.8,43-44.4,43C167.2,569.5,147.4,554.6,147.4,526.5"/>
<polygon fill="#FF3A1E" stroke="#FF3A1E" stroke-miterlimit="10" points="262.9,567 262.9,454.8 287.8,454.8 287.8,543.1 
	336.2,543.1 336.2,567 "/>
<path fill="#FF3A1E" stroke="#FF3A1E" stroke-miterlimit="10" d="M422.9,544.2h-43.3l-8.1,22.8h-26.2l42.2-112.1h28.9L458.2,567H431
	L422.9,544.2z M387.8,521.4H415l-13.4-38.7L387.8,521.4z"/>
<path fill="#FF3A1E" stroke="#FF3A1E" stroke-miterlimit="10" d="M462.4,511.1c0-34.9,26.6-58.7,57.9-58.7
	c33.7,0,48.5,21.7,52.2,37.8l-23.6,7.4c-1.7-7.7-8.9-20.9-28.6-20.9c-15,0-31.9,10.8-31.9,34.3c0,21,15.5,33.2,32.3,33.2
	c19.5,0,27.2-13,29.4-21l23.9,6.8c-3.6,15.5-18.5,39.2-53.3,39.2C488.4,569.3,462.4,546.1,462.4,511.1"/>
<path fill="#FF3A1E" stroke="#FF3A1E" stroke-miterlimit="10" d="M586.7,511.1c0-34.9,26.6-58.7,57.9-58.7
	c33.7,0,48.5,21.7,52.2,37.8l-23.6,7.4c-1.7-7.7-8.9-20.9-28.6-20.9c-15,0-31.9,10.8-31.9,34.3c0,21,15.5,33.2,32.3,33.2
	c19.5,0,27.2-13,29.4-21l23.9,6.8c-3.6,15.5-18.5,39.2-53.3,39.2C612.7,569.3,586.7,546.1,586.7,511.1"/>
<rect x="718.4" y="454.8" fill="#FF3A1E" stroke="#FF3A1E" stroke-miterlimit="10" width="25.3" height="112.1"/>
<polygon fill="#FF3A1E" stroke="#FF3A1E" stroke-miterlimit="10" points="842.1,567 795.9,493.3 795.9,567 771.1,567 771.1,454.8 
	801.5,454.8 843.5,523 843.5,454.8 868.5,454.8 868.5,567 "/>
<path fill="#FF3A1E" stroke="#FF3A1E" stroke-miterlimit="10" d="M947.7,452.5c31.5,0,58.2,22.9,58.2,58.5
	c0,35.4-26.7,58.3-58.2,58.3c-31.6,0-58.3-22.9-58.3-58.3C889.4,475.4,916.1,452.5,947.7,452.5 M947.7,544.7
	c15.5,0,32.3-10.4,32.3-33.8c0-23.4-16.8-34-32.3-34c-15.7,0-32.4,10.6-32.4,34C915.3,534.2,932.1,544.7,947.7,544.7"/>
<path fill="#FF3A1E" stroke="#FF3A1E" stroke-miterlimit="10" d="M18.1,656.1c0-34.9,26.6-58.7,57.9-58.7
	c33.7,0,48.5,21.7,52.2,37.8l-23.6,7.4c-1.7-7.7-8.9-20.9-28.6-20.9c-15,0-31.9,10.8-31.9,34.3c0,21,15.5,33.2,32.3,33.2
	c19.5,0,27.2-13,29.4-21l23.9,6.8c-3.6,15.5-18.5,39.2-53.3,39.2C44,714.3,18.1,691,18.1,656.1"/>
<path fill="#FF3A1E" stroke="#FF3A1E" stroke-miterlimit="10" d="M147.4,671.4v-71.6h25v69.6c0,13.6,7.6,20.4,19.4,20.4
	c11.9,0,19.4-6.8,19.4-20.4v-69.6h25v71.6c0,28.1-19.8,43-44.4,43C167.2,714.5,147.4,699.6,147.4,671.4"/>
<polygon fill="#FF3A1E" stroke="#FF3A1E" stroke-miterlimit="10" points="262.9,711.9 262.9,599.8 287.8,599.8 287.8,688 336.2,688 
	336.2,711.9 "/>
<path fill="#FF3A1E" stroke="#FF3A1E" stroke-miterlimit="10" d="M422.9,689.2h-43.3l-8.1,22.8h-26.2l42.2-112.1h28.9l41.7,112.1
	H431L422.9,689.2z M387.8,666.4H415l-13.4-38.7L387.8,666.4z"/>
<path fill="#FF3A1E" stroke="#FF3A1E" stroke-miterlimit="10" d="M462.4,656.1c0-34.9,26.6-58.7,57.9-58.7
	c33.7,0,48.5,21.7,52.2,37.8l-23.6,7.4c-1.7-7.7-8.9-20.9-28.6-20.9c-15,0-31.9,10.8-31.9,34.3c0,21,15.5,33.2,32.3,33.2
	c19.5,0,27.2-13,29.4-21l23.9,6.8c-3.6,15.5-18.5,39.2-53.3,39.2C488.4,714.3,462.4,691,462.4,656.1"/>
<path fill="#FF3A1E" stroke="#FF3A1E" stroke-miterlimit="10" d="M586.7,656.1c0-34.9,26.6-58.7,57.9-58.7
	c33.7,0,48.5,21.7,52.2,37.8l-23.6,7.4c-1.7-7.7-8.9-20.9-28.6-20.9c-15,0-31.9,10.8-31.9,34.3c0,21,15.5,33.2,32.3,33.2
	c19.5,0,27.2-13,29.4-21l23.9,6.8c-3.6,15.5-18.5,39.2-53.3,39.2C612.7,714.3,586.7,691,586.7,656.1"/>
<rect x="718.4" y="599.8" fill="#FF3A1E" stroke="#FF3A1E" stroke-miterlimit="10" width="25.3" height="112.1"/>
<polygon fill="#FF3A1E" stroke="#FF3A1E" stroke-miterlimit="10" points="842.1,711.9 795.9,638.2 795.9,711.9 771.1,711.9 
	771.1,599.8 801.5,599.8 843.5,668 843.5,599.8 868.5,599.8 868.5,711.9 "/>
<path fill="#FF3A1E" stroke="#FF3A1E" stroke-miterlimit="10" d="M947.7,597.4c31.5,0,58.2,22.9,58.2,58.5
	c0,35.4-26.7,58.3-58.2,58.3c-31.6,0-58.3-22.9-58.3-58.3C889.4,620.4,916.1,597.4,947.7,597.4 M947.7,689.6
	c15.5,0,32.3-10.4,32.3-33.8c0-23.4-16.8-34-32.3-34c-15.7,0-32.4,10.6-32.4,34C915.3,679.2,932.1,689.6,947.7,689.6"/>
<path fill="#FF3A1E" stroke="#FF3A1E" stroke-miterlimit="10" d="M18.1,801.1c0-34.9,26.6-58.7,57.9-58.7
	c33.7,0,48.5,21.7,52.2,37.8l-23.6,7.4c-1.7-7.7-8.9-20.9-28.6-20.9c-15,0-31.9,10.8-31.9,34.3c0,21,15.5,33.2,32.3,33.2
	c19.5,0,27.2-13,29.4-21l23.9,6.8c-3.6,15.5-18.5,39.2-53.3,39.2C44,859.3,18.1,836,18.1,801.1"/>
<path fill="#FF3A1E" stroke="#FF3A1E" stroke-miterlimit="10" d="M147.4,816.4v-71.6h25v69.6c0,13.6,7.6,20.4,19.4,20.4
	c11.9,0,19.4-6.8,19.4-20.4v-69.6h25v71.6c0,28.1-19.8,43-44.4,43C167.2,859.4,147.4,844.5,147.4,816.4"/>
<polygon fill="#FF3A1E" stroke="#FF3A1E" stroke-miterlimit="10" points="262.9,856.9 262.9,744.8 287.8,744.8 287.8,833 336.2,833 
	336.2,856.9 "/>
<path fill="#FF3A1E" stroke="#FF3A1E" stroke-miterlimit="10" d="M422.9,834.1h-43.3l-8.1,22.8h-26.2l42.2-112.1h28.9l41.7,112.1
	H431L422.9,834.1z M387.8,811.3H415l-13.4-38.7L387.8,811.3z"/>
<path fill="#FF3A1E" stroke="#FF3A1E" stroke-miterlimit="10" d="M462.4,801.1c0-34.9,26.6-58.7,57.9-58.7
	c33.7,0,48.5,21.7,52.2,37.8l-23.6,7.4c-1.7-7.7-8.9-20.9-28.6-20.9c-15,0-31.9,10.8-31.9,34.3c0,21,15.5,33.2,32.3,33.2
	c19.5,0,27.2-13,29.4-21l23.9,6.8c-3.6,15.5-18.5,39.2-53.3,39.2C488.4,859.3,462.4,836,462.4,801.1"/>
<path fill="#FF3A1E" stroke="#FF3A1E" stroke-miterlimit="10" d="M586.7,801.1c0-34.9,26.6-58.7,57.9-58.7
	c33.7,0,48.5,21.7,52.2,37.8l-23.6,7.4c-1.7-7.7-8.9-20.9-28.6-20.9c-15,0-31.9,10.8-31.9,34.3c0,21,15.5,33.2,32.3,33.2
	c19.5,0,27.2-13,29.4-21l23.9,6.8c-3.6,15.5-18.5,39.2-53.3,39.2C612.7,859.3,586.7,836,586.7,801.1"/>
<rect x="718.4" y="744.8" fill="#FF3A1E" stroke="#FF3A1E" stroke-miterlimit="10" width="25.3" height="112.1"/>
<polygon fill="#FF3A1E" stroke="#FF3A1E" stroke-miterlimit="10" points="842.1,856.9 795.9,783.2 795.9,856.9 771.1,856.9 
	771.1,744.8 801.5,744.8 843.5,812.9 843.5,744.8 868.5,744.8 868.5,856.9 "/>
<path fill="#FF3A1E" stroke="#FF3A1E" stroke-miterlimit="10" d="M947.7,742.4c31.5,0,58.2,22.9,58.2,58.5
	c0,35.4-26.7,58.3-58.2,58.3c-31.6,0-58.3-22.9-58.3-58.3C889.4,765.3,916.1,742.4,947.7,742.4 M947.7,834.6
	c15.5,0,32.3-10.4,32.3-33.8c0-23.4-16.8-34-32.3-34c-15.7,0-32.4,10.6-32.4,34C915.3,824.2,932.1,834.6,947.7,834.6"/>
</svg>
